<?xml version="1.0" standalone="no"?>
<!DOCTYPE svg PUBLIC "-//W3C//DTD SVG 20010904//EN"
 "http://www.w3.org/TR/2001/REC-SVG-20010904/DTD/svg10.dtd">
<svg version="1.0" xmlns="http://www.w3.org/2000/svg"
 width="2083.000000pt" height="2083.000000pt" viewBox="0 0 2083.000000 2083.000000"
 preserveAspectRatio="xMidYMid meet">
<metadata>
Created by potrace 1.11, written by Peter Selinger 2001-2013
</metadata>
<g transform="translate(0.000000,2083.000000) scale(0.100000,-0.100000)"
fill="#000000" stroke="none">
<path d="M9860 20827 c-3 -3 -113 -12 -245 -22 -547 -38 -1116 -130 -1745
-281 -187 -45 -579 -161 -810 -240 -2899 -987 -5220 -3204 -6345 -6059 -141
-359 -325 -927 -401 -1235 -44 -183 -116 -512 -134 -615 -11 -66 -30 -168 -40
-226 -33 -176 -89 -629 -112 -914 -20 -236 -23 -339 -23 -820 0 -485 3 -581
23 -815 42 -499 128 -1079 212 -1435 10 -44 28 -123 40 -175 53 -236 175 -657
271 -939 377 -1102 948 -2152 1671 -3073 494 -629 1127 -1262 1758 -1757 1482
-1165 3242 -1902 5110 -2140 490 -63 708 -75 1315 -76 654 0 795 8 1365 81
2350 298 4552 1418 6199 3151 606 638 1093 1299 1560 2116 13 23 82 155 153
292 400 775 692 1572 889 2425 33 146 65 289 70 317 5 29 13 77 18 105 60 342
65 371 115 768 8 63 17 158 21 210 3 52 13 177 21 278 23 295 19 1071 -7 1419
-129 1747 -671 3387 -1602 4848 -1468 2303 -3785 3942 -6437 4553 -246 57
-321 72 -625 126 -196 35 -577 83 -860 108 -202 18 -332 22 -830 25 -325 2
-593 2 -595 0z"/>
</g>
</svg>
